<svg width="181" height="181" viewBox="0 0 181 181" fill="none" xmlns="http://www.w3.org/2000/svg">
<path d="M58.7543 66.0367L28.8469 70.0667L40.3008 49.28L55.8555 54.3" stroke="white" stroke-width="3"/>
<path d="M72.1879 55.9261L128.326 38.0382L140.699 49.4921L150.527 65.0468L68.9355 66.3195" stroke="white" stroke-width="3"/>
<path d="M56.0676 67.3093L55.7141 53.8757C55.7141 53.8757 59.4613 48.6437 64.4812 48.6437C69.4305 48.6437 73.107 53.8757 73.107 53.8757L73.1777 67.2386C73.1777 67.2386 69.9254 64.8347 64.3398 64.8347C58.825 64.8347 56.0676 67.3093 56.0676 67.3093V67.3093Z" stroke="white" stroke-width="5"/>
<path d="M55.7848 145.79L55.7141 68.1577C55.7141 68.1577 61.0875 64.6932 64.4812 64.6932C67.8043 64.6932 73.107 68.1577 73.107 68.1577L83.0762 154.84L69.0062 151.163L55.7848 145.79Z" stroke="white" stroke-width="5"/>
<path d="M55.7141 132.144C63.4207 126.629 75.9352 122.67 79.6117 123.942C79.6824 124.862 79.6117 123.801 80.1066 129.952C68.2285 127.76 55.7141 139.144 55.7141 139.144" stroke="white" stroke-width="2"/>
<path d="M55.7141 111.569C63.4207 106.055 73.3191 102.025 76.9957 103.297C77.1371 104.216 77.1371 101.388 77.7027 107.61C64.8348 107.327 55.8555 117.084 55.8555 117.084" stroke="white" stroke-width="2"/>
<path d="M55.7141 90.5707C63.4207 84.9851 70.7738 82.3691 74.8746 82.6519C75.016 83.5711 74.5918 81.5914 75.1574 87.5304C62.9258 87.8132 55.7141 96.7218 55.7141 96.7218" stroke="white" stroke-width="2"/>
<path d="M55.8555 75.8644C63.4914 70.3495 67.2387 70.2081 73.3191 69.3597C73.3898 70.2788 72.6121 66.6023 73.6727 72.7534C59.8855 72.8948 55.7141 80.7429 55.7141 80.7429" stroke="white" stroke-width="2"/>
<path fill-rule="evenodd" clip-rule="evenodd" d="M90.5 176.334C43.0582 176.334 4.6664 137.942 4.6664 90.5C4.6664 43.0582 43.0582 4.66638 90.5 4.66638C137.942 4.66638 176.334 43.0582 176.334 90.5C176.334 137.942 137.942 176.334 90.5 176.334ZM154.84 90.5C154.84 54.9363 126.064 26.1601 90.5 26.1601C54.9363 26.1601 26.1602 54.9363 26.1602 90.5C26.1602 126.064 54.9363 154.84 90.5 154.84C126.064 154.84 154.84 126.064 154.84 90.5Z" stroke="white" stroke-width="5"/>
<path d="M165.587 94.7421C167.969 94.7421 169.9 92.8112 169.9 90.4292C169.9 88.0473 167.969 86.1163 165.587 86.1163C163.205 86.1163 161.274 88.0473 161.274 90.4292C161.274 92.8112 163.205 94.7421 165.587 94.7421Z" fill="white"/>
<path d="M15.3426 94.7421C17.7245 94.7421 19.6555 92.8112 19.6555 90.4292C19.6555 88.0473 17.7245 86.1163 15.3426 86.1163C12.9606 86.1163 11.0297 88.0473 11.0297 90.4292C11.0297 92.8112 12.9606 94.7421 15.3426 94.7421Z" fill="white"/>
<path fill-rule="evenodd" clip-rule="evenodd" d="M23.8269 64.764L17.5344 62.2894L18.3121 60.4511L24.534 62.9964C25.4296 63.3264 25.9952 63.8213 26.2309 64.4812C26.4665 65.1411 26.3958 65.9424 26.0187 66.8851L25.8773 67.2386L24.534 66.673L24.6047 66.4609C24.7461 66.0838 24.7461 65.7539 24.6047 65.471C24.5104 65.1882 24.2512 64.9526 23.8269 64.764ZM28.5641 56.2796L27.15 56.0675L25.8066 58.7542L26.7965 59.8148L25.8773 61.5824L20.4332 55.714L21.4937 53.6636L29.4125 54.5121L28.5641 56.2796ZM22.5543 55.5019L24.7461 57.7644L25.7359 55.9261L22.5543 55.5019ZM28.3519 50.5527H23.1906L24.3219 48.7851H27.5035L26.2309 45.8863L27.3621 44.1187L29.4125 48.8558L32.0992 50.6234L31.0387 52.2496L28.3519 50.5527ZM37.1898 43.6238L35.8465 43.1289L33.9375 45.4621L34.6445 46.664L33.3719 48.1488L29.4832 41.2199L30.8973 39.4523L38.4625 42.139L37.1898 43.6238ZM31.4629 41.432L33.0891 44.1894L34.4324 42.5632L31.4629 41.432ZM42.9875 37.7554L38.1797 32.0285L42.1391 28.6347L43.1289 29.766L40.5836 31.8871L41.5027 32.9476L43.8359 30.9679L44.7551 32.0992L42.4219 34.0789L43.5531 35.4222L46.0984 33.2304L47.0883 34.3617L42.9875 37.7554ZM49.2801 32.6648L45.25 26.3722L46.9469 25.241C47.8896 24.6282 48.6437 24.2511 49.2094 24.1097C49.775 23.9212 50.3171 23.874 50.8355 23.9683C51.354 24.0626 51.8018 24.2511 52.1789 24.5339C52.556 24.8167 52.8859 25.1938 53.1687 25.6652C53.4987 26.1365 53.7108 26.6079 53.8051 27.0792C53.8993 27.5506 53.8758 28.022 53.7344 28.4933C53.593 29.0589 53.3573 29.5539 53.0273 29.9781C52.6031 30.4023 51.9197 30.9208 50.9769 31.5335L49.2801 32.6648ZM48.2195 26.1601L47.6539 26.5843L50.1285 30.4023L50.6941 30.0488C51.4012 29.6246 51.8254 29.1296 51.9668 28.564C52.0611 27.9984 51.9197 27.4092 51.5426 26.7964C51.1184 26.1837 50.647 25.8066 50.1285 25.6652C49.5158 25.5709 48.8794 25.7359 48.2195 26.1601ZM56.2797 24.9582L54.3707 20.8574L56.1383 20.0796L58.0473 24.1097C58.2829 24.6753 58.5422 25.0524 58.825 25.241C59.1078 25.3824 59.4849 25.3588 59.9562 25.1703C60.3805 24.9817 60.6161 24.6989 60.6633 24.3218C60.7575 24.039 60.6633 23.6148 60.3805 23.0492L58.4715 18.9484L60.2391 18.1L62.148 22.2007C62.5723 23.1906 62.6665 24.0154 62.4309 24.6753C62.148 25.3824 61.5117 25.9716 60.5219 26.4429C59.532 26.9143 58.6836 27.0085 57.9766 26.7257C57.2695 26.4901 56.7039 25.9009 56.2797 24.9582ZM71.4101 20.1503L71.8344 21.7058C71.5516 21.9886 71.2452 22.2243 70.9152 22.4128C70.5853 22.6014 70.2082 22.7664 69.784 22.9078C68.6056 23.2848 67.545 23.2613 66.6023 22.8371C65.7068 22.3657 65.094 21.5644 64.7641 20.4332C64.387 19.2548 64.4577 18.2178 64.9762 17.3222C65.4475 16.4738 66.2724 15.861 67.4508 15.4839C67.8279 15.3425 68.2285 15.2718 68.6527 15.2718C69.0298 15.2247 69.4305 15.2247 69.8547 15.2718L70.2789 16.8273C69.8547 16.6859 69.454 16.6152 69.0769 16.6152C68.747 16.6152 68.3935 16.6623 68.0164 16.7566C67.3565 16.9923 66.9087 17.3694 66.673 17.8878C66.3902 18.4063 66.3902 19.0427 66.673 19.7968C66.9087 20.551 67.2858 21.0695 67.8043 21.3523C68.2757 21.6822 68.8413 21.7294 69.5012 21.4937C69.8783 21.3994 70.2082 21.258 70.491 21.0695C70.821 20.8338 71.1273 20.5274 71.4101 20.1503ZM79.3996 20.5039L78.6926 19.3019L75.723 19.8675L75.5109 21.2816L73.602 21.6351L74.8746 13.7164L77.2078 13.2921L81.3086 20.1503L79.3996 20.5039ZM76.3594 15.2718L75.9352 18.3828L77.9855 18.0292L76.3594 15.2718ZM81.3086 14.1406L81.1672 12.6558L88.0254 12.1609L88.1668 13.6457L85.6922 13.8578L86.1164 19.8675L84.2074 19.9382L83.7832 13.9285L81.3086 14.1406ZM90.3586 19.7261L90.5 12.2316L92.409 12.3023L92.2676 19.7968L90.3586 19.7261ZM99.4086 12.5851C100.634 12.7265 101.53 13.1979 102.095 13.9992C102.708 14.7062 102.944 15.696 102.802 16.9687C102.661 18.1471 102.213 19.0427 101.459 19.6554C100.705 20.2682 99.715 20.5039 98.4894 20.3624C97.3582 20.221 96.4626 19.7733 95.8027 19.0191C95.2371 18.2178 95.025 17.2279 95.1664 16.0496C95.3078 14.824 95.7556 13.9285 96.5098 13.3628C97.2639 12.7029 98.2302 12.4437 99.4086 12.5851ZM99.2672 13.9992C98.7016 13.9049 98.2302 14.0699 97.8531 14.4941C97.476 14.8712 97.2404 15.4604 97.1461 16.2617C97.0518 17.063 97.1461 17.6993 97.4289 18.1707C97.7117 18.642 98.1359 18.9013 98.7016 18.9484C99.3143 18.9955 99.8092 18.8305 100.186 18.4535C100.516 18.0764 100.728 17.4872 100.823 16.6859C100.917 15.9317 100.846 15.2954 100.611 14.7769C100.328 14.3055 99.8799 14.0463 99.2672 13.9992ZM104.994 21.2109L106.903 13.9285L109.024 14.4234L110.297 20.0796L111.64 15.1304L113.408 15.6253L111.499 22.8371L109.448 22.3421L108.105 16.6152L106.762 21.6351L104.994 21.2109ZM119.064 25.8066L119.135 24.3925L116.307 23.1906L115.387 24.3218L113.549 23.5441L118.993 17.6757L121.114 18.5242L120.832 26.5843L119.064 25.8066ZM119.7 19.6554L117.579 22.0593L119.488 22.8371L119.7 19.6554ZM122.741 27.4328L126.346 20.8574L128.043 21.8472L125.145 27.0792L128.043 28.7761L127.336 30.0488L122.741 27.4328ZM135.891 28.4226L136.811 27.2914L142.255 31.6042L141.265 32.7355L139.356 31.18L135.609 35.9171L134.053 34.7152L137.871 29.9781L135.891 28.4226ZM142.679 38.6039L142.325 38.1796L140.275 40.23L138.932 38.816L144.305 33.5839L146.355 35.705C147.015 36.4121 147.392 37.0484 147.487 37.614C147.581 38.1325 147.369 38.651 146.85 39.1695C146.52 39.5466 146.143 39.7587 145.719 39.8058C145.342 39.8529 144.941 39.7587 144.517 39.523C144.659 39.7115 144.706 39.9708 144.659 40.3007C144.659 40.5835 144.588 40.9606 144.446 41.432L143.669 43.6238L142.255 42.2097L142.891 40.23C143.032 39.8529 143.103 39.5466 143.103 39.3109C143.009 39.0752 142.867 38.8395 142.679 38.6039ZM143.245 37.3312L143.81 37.8968C144.093 38.1796 144.352 38.321 144.588 38.321C144.824 38.3682 145.059 38.2503 145.295 37.9675C145.578 37.7319 145.696 37.5197 145.648 37.3312C145.648 37.0955 145.483 36.8363 145.154 36.5535L144.659 35.9171L143.245 37.3312ZM147.77 43.7652L151.375 41.0078L152.577 42.6339L148.971 45.25C148.5 45.627 148.194 46.0041 148.052 46.3812C147.958 46.664 148.052 46.994 148.335 47.371C148.618 47.7481 148.924 47.9367 149.254 47.9367C149.584 47.9367 150.008 47.7481 150.527 47.371L154.133 44.6843L155.264 46.2398L151.658 48.9265C150.857 49.5393 150.079 49.7985 149.325 49.7043C148.571 49.61 147.864 49.1151 147.204 48.2195C146.544 47.371 146.261 46.5697 146.355 45.8156C146.45 45.1085 146.921 44.4251 147.77 43.7652ZM159.506 54.2292L158.163 55.007C158.116 54.5828 158.021 54.1585 157.88 53.7343C157.786 53.3572 157.668 53.0037 157.527 52.6738C157.291 52.2967 157.055 52.061 156.82 51.9667C156.584 51.8253 156.348 51.8253 156.112 51.9667C155.971 52.0139 155.877 52.1553 155.83 52.391C155.783 52.5324 155.83 52.8152 155.971 53.2394L156.254 54.0171C156.537 54.8184 156.607 55.4548 156.466 55.9261C156.325 56.3975 155.995 56.7981 155.476 57.1281C154.722 57.5052 154.062 57.5994 153.496 57.4109C152.884 57.1752 152.342 56.6096 151.87 55.714C151.635 55.2898 151.423 54.8656 151.234 54.4414C151.093 53.9229 150.975 53.4279 150.88 52.9566L152.295 52.1789C152.342 52.6973 152.412 53.1923 152.507 53.6636C152.601 54.135 152.742 54.5356 152.931 54.8656C153.167 55.2427 153.402 55.5019 153.638 55.6433C153.874 55.7376 154.109 55.714 154.345 55.5726C154.533 55.4783 154.651 55.3134 154.698 55.0777C154.698 54.9363 154.651 54.6299 154.557 54.1585L154.274 53.4515C154.039 52.6973 153.991 52.0846 154.133 51.6132C154.274 51.1419 154.604 50.7648 155.123 50.482C155.783 50.1049 156.395 50.0342 156.961 50.2699C157.574 50.4584 158.092 50.9533 158.516 51.7546C158.752 52.1317 158.941 52.5324 159.082 52.9566C159.271 53.3337 159.412 53.7579 159.506 54.2292ZM159.789 57.4109L161.132 56.8453L163.819 63.2793L162.476 63.8449L161.557 61.5824L155.971 63.8449L155.193 62.0773L160.779 59.7441L159.789 57.4109Z" fill="white"/>
<path fill-rule="evenodd" clip-rule="evenodd" d="M14.4941 106.62L21.1402 105.135L21.5644 107.044L14.9184 108.529C14.0228 108.718 13.2922 108.624 12.7266 108.246C12.1609 107.822 11.7603 107.115 11.5246 106.125L11.4539 105.701L12.868 105.418L12.9387 105.701C13.0329 106.078 13.2215 106.361 13.5043 106.55C13.74 106.691 14.0699 106.715 14.4941 106.62ZM16.6859 117.155L17.8172 116.307L16.898 113.408L15.484 113.337L14.9184 111.499L22.8371 111.852L23.6148 114.044L17.3223 118.993L16.6859 117.155ZM21.4937 113.478H18.3828L18.9484 115.387L21.4937 113.478ZM21.8473 121.397L24.6047 117.014L25.5238 118.923L23.7562 121.609L26.9379 122.034L27.7863 123.943L22.625 123.165L19.7262 124.508L19.0191 122.741L21.8473 121.397ZM24.6047 133.205L25.5238 132.073L23.8977 129.457L22.4836 129.811L21.4937 128.114L29.3418 126.559L30.5437 128.538L25.5945 134.831L24.6047 133.205ZM28.4934 128.468L25.3824 129.175L26.5137 130.942L28.4934 128.468ZM30.7559 141.477L36.3414 136.386L39.8059 140.275L38.7453 141.265L36.5535 138.861L35.493 139.78L37.6141 142.043L36.4828 143.032L34.4324 140.77L33.1598 141.972L35.493 144.446L34.3617 145.436L30.7559 141.477ZM37.4019 148.335L42.2098 142.608L43.9066 144.022L42.634 149.749L45.957 145.79L47.3711 146.921L42.5633 152.719L40.8664 151.305L42.1391 145.648L38.7453 149.537L37.4019 148.335ZM54.0879 155.335L52.2496 158.446C51.684 158.351 51.1419 158.234 50.6234 158.092C50.1521 157.904 49.6807 157.668 49.2094 157.385C48.1253 156.678 47.4654 155.853 47.2297 154.911C46.994 153.921 47.1825 152.907 47.7953 151.87C48.4552 150.88 49.2801 150.291 50.2699 150.103C51.3069 149.914 52.3674 150.15 53.4516 150.81C53.8758 151.093 54.2293 151.399 54.5121 151.729C54.8892 152.012 55.1956 152.342 55.4312 152.719L54.6535 154.062C54.4178 153.638 54.1586 153.261 53.8758 152.931C53.593 152.601 53.263 152.342 52.8859 152.153C52.226 151.729 51.6133 151.587 51.0476 151.729C50.482 151.87 49.9635 152.271 49.4922 152.931C49.068 153.638 48.9266 154.274 49.068 154.84C49.1622 155.405 49.5393 155.9 50.1992 156.325C50.3406 156.419 50.482 156.49 50.6234 156.537C50.812 156.631 50.9769 156.702 51.1184 156.749L51.8961 155.476L50.9062 154.84L51.6133 153.779L54.0879 155.335ZM55.1484 160.496L58.4008 153.779L60.1683 154.628L56.916 161.415L55.1484 160.496ZM60.5219 163.041L63.1379 155.971L65.1176 156.678L65.966 162.476L67.6629 157.597L69.4305 158.304L66.8851 165.304L64.8348 164.597L63.9863 158.799L62.2187 163.607L60.5219 163.041ZM70.9859 166.506L72.6828 159.153L77.7734 160.355L77.4906 161.769L74.2383 160.991L73.9555 162.405L76.925 163.041L76.6422 164.455L73.6726 163.819L73.2484 165.516L76.5715 166.223L76.2887 167.637L70.9859 166.506ZM79.8945 168.273L80.6016 160.85L85.8336 161.344L85.6922 162.829L82.4398 162.476L82.2277 163.89L85.3387 164.173L85.1973 165.657L82.0863 165.304L81.9449 167.071L85.3387 167.354L85.1973 168.839L79.8945 168.273ZM91.9848 166.011L91.4191 166.082L91.4898 168.91H89.5808L89.3687 161.415L92.2676 161.344C93.3046 161.297 94.0352 161.462 94.4594 161.839C94.9307 162.122 95.19 162.617 95.2371 163.324C95.2371 163.843 95.1193 164.267 94.8836 164.597C94.6479 164.927 94.2944 165.162 93.823 165.304C94.1059 165.398 94.3415 165.54 94.5301 165.728C94.7657 165.917 95.0014 166.223 95.2371 166.647L96.2976 168.768H94.2473L93.2574 166.93C93.0689 166.553 92.9039 166.317 92.7625 166.223C92.5268 166.082 92.2676 166.011 91.9848 166.011ZM91.0656 164.738L91.9141 164.668C92.2911 164.668 92.574 164.597 92.7625 164.455C92.951 164.314 93.0453 164.055 93.0453 163.678C92.9982 163.348 92.9039 163.112 92.7625 162.971C92.574 162.829 92.2676 162.759 91.8433 162.759H91.0656V164.738ZM99.1965 168.415L98.2773 160.92L100.186 160.708L101.105 168.132L99.1965 168.415ZM105.065 167.637L103.368 160.355L105.418 159.789L109.307 164.173L108.105 159.153L109.943 158.728L111.64 166.082L109.519 166.577L105.701 162.193L106.903 167.213L105.065 167.637ZM120.549 158.375L121.892 161.769C121.515 162.146 121.114 162.476 120.69 162.759C120.266 163.088 119.795 163.348 119.276 163.536C118.098 164.008 117.037 164.031 116.095 163.607C115.152 163.23 114.468 162.499 114.044 161.415C113.62 160.284 113.62 159.271 114.044 158.375C114.468 157.432 115.293 156.725 116.519 156.254C116.99 156.065 117.461 155.947 117.933 155.9C118.357 155.806 118.781 155.759 119.205 155.759L119.842 157.244C119.37 157.149 118.899 157.126 118.428 157.173C118.004 157.22 117.603 157.314 117.226 157.456C116.519 157.739 116.047 158.163 115.812 158.728C115.576 159.294 115.623 159.954 115.953 160.708C116.236 161.415 116.637 161.91 117.155 162.193C117.674 162.429 118.286 162.405 118.993 162.122C119.182 162.075 119.347 162.004 119.488 161.91C119.63 161.816 119.771 161.722 119.912 161.627L119.347 160.284L118.216 160.708L117.791 159.506L120.549 158.375ZM134.548 153.002L135.396 154.274C135.208 154.651 134.972 154.981 134.689 155.264C134.407 155.547 134.1 155.806 133.77 156.042C132.686 156.702 131.649 156.961 130.659 156.819C129.67 156.584 128.845 155.971 128.185 154.981C127.525 153.991 127.313 153.002 127.548 152.012C127.784 151.022 128.444 150.173 129.528 149.466C129.858 149.278 130.212 149.113 130.589 148.971C130.966 148.83 131.366 148.759 131.791 148.759L132.568 150.032C132.144 150.032 131.767 150.079 131.437 150.173C131.06 150.221 130.706 150.362 130.377 150.598C129.811 150.975 129.481 151.446 129.387 152.012C129.292 152.624 129.457 153.261 129.882 153.921C130.306 154.533 130.801 154.934 131.366 155.123C131.932 155.264 132.521 155.146 133.134 154.769C133.417 154.581 133.676 154.345 133.912 154.062C134.147 153.779 134.359 153.426 134.548 153.002ZM136.528 144.164C137.47 143.409 138.413 143.056 139.356 143.103C140.346 143.197 141.218 143.692 141.972 144.588C142.773 145.531 143.15 146.473 143.103 147.416C143.009 148.406 142.514 149.301 141.618 150.103C140.676 150.857 139.733 151.21 138.79 151.163C137.8 151.069 136.928 150.574 136.174 149.678C135.373 148.736 134.996 147.769 135.043 146.78C135.137 145.837 135.632 144.965 136.528 144.164ZM137.447 145.224C137.023 145.601 136.811 146.073 136.811 146.638C136.858 147.157 137.14 147.722 137.659 148.335C138.177 148.948 138.696 149.301 139.214 149.396C139.733 149.537 140.228 149.419 140.699 149.042C141.171 148.618 141.383 148.147 141.336 147.628C141.288 147.062 141.006 146.497 140.487 145.931C139.969 145.318 139.45 144.941 138.932 144.8C138.413 144.706 137.918 144.847 137.447 145.224ZM147.133 144.659L141.548 139.639L142.82 138.225L147.345 142.255L149.608 139.709L150.668 140.699L147.133 144.659ZM152.86 138.083L146.709 133.7L147.84 132.144L152.719 135.679L154.769 132.922L155.9 133.77L152.86 138.083ZM157.809 130.801L151.234 127.195L153.779 122.599L155.052 123.306L153.496 126.205L154.698 126.841L156.183 124.155L157.456 124.862L155.971 127.548L157.456 128.397L159.153 125.427L160.355 126.134L157.809 130.801ZM160.92 114.61L164.243 115.953C164.29 116.472 164.267 116.99 164.173 117.509C164.078 118.074 163.937 118.593 163.748 119.064C163.324 120.242 162.617 121.044 161.627 121.468C160.732 121.892 159.718 121.869 158.587 121.397C157.503 120.973 156.772 120.29 156.395 119.347C156.018 118.357 156.065 117.273 156.537 116.094C156.725 115.623 156.937 115.199 157.173 114.822C157.456 114.445 157.762 114.091 158.092 113.761L159.506 114.327C159.129 114.657 158.823 114.987 158.587 115.317C158.304 115.647 158.092 116 157.951 116.377C157.668 117.084 157.644 117.744 157.88 118.357C158.163 118.875 158.658 119.276 159.365 119.559C160.119 119.842 160.779 119.889 161.345 119.7C161.863 119.465 162.264 119.017 162.546 118.357C162.594 118.168 162.641 117.98 162.688 117.791C162.735 117.65 162.759 117.509 162.759 117.367L161.415 116.802L160.991 117.862L159.789 117.367L160.92 114.61ZM166.011 112.206L158.729 110.368L160.001 105.277L161.415 105.63L160.637 108.812L161.981 109.166L162.688 106.196L164.102 106.55L163.395 109.59L165.092 109.943L165.87 106.691L167.284 107.044L166.011 112.206Z" fill="white"/>
</svg>
